<svg xmlns="http://www.w3.org/2000/svg" xmlns:xlink="http://www.w3.org/1999/xlink" width="1000" zoomAndPan="magnify" viewBox="0 0 750 749.999995" height="1000" preserveAspectRatio="xMidYMid meet" version="1.0"><defs><clipPath id="4664347e5b"><path d="M 111.621094 28.449219 L 638.121094 28.449219 L 638.121094 721.449219 L 111.621094 721.449219 Z M 111.621094 28.449219 " clip-rule="nonzero"/></clipPath></defs><g clip-path="url(#4664347e5b)"><path fill="#ff9b01" d="M 634.3125 198.851562 L 467.972656 32.507812 C 465.378906 29.902344 461.859375 28.449219 458.171875 28.449219 L 125.484375 28.449219 C 117.832031 28.449219 111.625 34.65625 111.625 42.308594 L 111.625 707.679688 C 111.625 715.34375 117.832031 721.542969 125.484375 721.542969 L 624.511719 721.542969 C 632.179688 721.542969 638.375 715.34375 638.375 707.679688 L 638.375 208.652344 C 638.375 204.980469 636.917969 201.445312 634.3125 198.851562 Z M 472.03125 75.773438 L 591.050781 194.789062 L 472.03125 194.789062 Z M 139.347656 693.816406 L 139.347656 56.171875 L 444.308594 56.171875 L 444.308594 208.652344 C 444.308594 216.304688 450.503906 222.515625 458.171875 222.515625 L 610.652344 222.515625 L 610.652344 693.816406 Z M 139.347656 693.816406 " fill-opacity="1" fill-rule="nonzero"/></g><path fill="#ff9b01" d="M 236.378906 222.515625 L 347.273438 222.515625 C 354.925781 222.515625 361.136719 216.304688 361.136719 208.652344 C 361.136719 201 354.925781 194.789062 347.273438 194.789062 L 236.378906 194.789062 C 228.730469 194.789062 222.519531 201 222.519531 208.652344 C 222.519531 216.304688 228.730469 222.515625 236.378906 222.515625 Z M 236.378906 222.515625 " fill-opacity="1" fill-rule="nonzero"/><path fill="#ff9b01" d="M 513.617188 305.683594 L 236.378906 305.683594 C 228.730469 305.683594 222.519531 311.894531 222.519531 319.546875 C 222.519531 327.199219 228.730469 333.410156 236.378906 333.410156 L 513.617188 333.410156 C 521.285156 333.410156 527.480469 327.199219 527.480469 319.546875 C 527.480469 311.894531 521.285156 305.683594 513.617188 305.683594 Z M 513.617188 305.683594 " fill-opacity="1" fill-rule="nonzero"/><path fill="#ff9b01" d="M 513.617188 416.582031 L 236.378906 416.582031 C 228.730469 416.582031 222.519531 422.777344 222.519531 430.441406 C 222.519531 438.109375 228.730469 444.304688 236.378906 444.304688 L 513.617188 444.304688 C 521.285156 444.304688 527.480469 438.109375 527.480469 430.441406 C 527.480469 422.777344 521.285156 416.582031 513.617188 416.582031 Z M 513.617188 416.582031 " fill-opacity="1" fill-rule="nonzero"/><path fill="#ff9b01" d="M 513.617188 527.476562 L 236.378906 527.476562 C 228.730469 527.476562 222.519531 533.671875 222.519531 541.335938 C 222.519531 549.003906 228.730469 555.199219 236.378906 555.199219 L 513.617188 555.199219 C 521.285156 555.199219 527.480469 549.003906 527.480469 541.335938 C 527.480469 533.671875 521.285156 527.476562 513.617188 527.476562 Z M 513.617188 527.476562 " fill-opacity="1" fill-rule="nonzero"/></svg>