<svg xmlns="http://www.w3.org/2000/svg" xmlns:xlink="http://www.w3.org/1999/xlink" width="1000" zoomAndPan="magnify" viewBox="0 0 750 749.999995" height="1000" preserveAspectRatio="xMidYMid meet" version="1.0"><defs><clipPath id="375a9b8643"><path d="M 21.433594 62 L 714 62 L 714 697.371094 L 21.433594 697.371094 Z M 21.433594 62 " clip-rule="nonzero"/></clipPath></defs><g clip-path="url(#375a9b8643)"><path fill="#ff9b01" d="M 638.734375 234.386719 L 638.734375 598.992188 C 638.734375 600.609375 638.695312 602.222656 638.617188 603.835938 C 638.539062 605.445312 638.421875 607.054688 638.265625 608.664062 C 638.105469 610.269531 637.910156 611.871094 637.675781 613.46875 C 637.4375 615.066406 637.164062 616.65625 636.847656 618.238281 C 636.535156 619.824219 636.183594 621.398438 635.789062 622.964844 C 635.398438 624.53125 634.96875 626.085938 634.5 627.632812 C 634.035156 629.175781 633.527344 630.710938 632.984375 632.230469 C 632.441406 633.75 631.859375 635.257812 631.242188 636.75 C 630.625 638.238281 629.972656 639.714844 629.28125 641.175781 C 628.59375 642.636719 627.867188 644.078125 627.105469 645.5 C 626.347656 646.925781 625.550781 648.328125 624.722656 649.714844 C 623.890625 651.097656 623.027344 652.464844 622.132812 653.804688 C 621.234375 655.148438 620.304688 656.46875 619.34375 657.765625 C 618.382812 659.0625 617.390625 660.335938 616.367188 661.582031 C 615.34375 662.832031 614.289062 664.050781 613.203125 665.25 C 612.121094 666.445312 611.007812 667.613281 609.867188 668.753906 C 608.722656 669.898438 607.554688 671.011719 606.359375 672.09375 C 605.164062 673.179688 603.941406 674.234375 602.691406 675.257812 C 601.445312 676.28125 600.171875 677.273438 598.875 678.234375 C 597.578125 679.199219 596.257812 680.125 594.917969 681.023438 C 593.574219 681.921875 592.210938 682.785156 590.824219 683.613281 C 589.441406 684.441406 588.035156 685.238281 586.613281 686 C 585.1875 686.757812 583.746094 687.484375 582.285156 688.175781 C 580.828125 688.863281 579.351562 689.519531 577.859375 690.136719 C 576.367188 690.753906 574.863281 691.332031 573.339844 691.875 C 571.820312 692.421875 570.289062 692.925781 568.742188 693.394531 C 567.199219 693.863281 565.644531 694.292969 564.078125 694.683594 C 562.511719 695.074219 560.933594 695.429688 559.351562 695.742188 C 557.769531 696.058594 556.179688 696.332031 554.582031 696.566406 C 552.984375 696.804688 551.382812 697 549.773438 697.160156 C 548.167969 697.316406 546.558594 697.433594 544.945312 697.511719 C 543.332031 697.589844 541.71875 697.628906 540.105469 697.628906 L 120.347656 697.628906 C 118.730469 697.628906 117.117188 697.589844 115.503906 697.511719 C 113.894531 697.433594 112.285156 697.316406 110.675781 697.160156 C 109.070312 697 107.46875 696.804688 105.871094 696.570312 C 104.273438 696.332031 102.683594 696.058594 101.097656 695.742188 C 99.515625 695.429688 97.941406 695.078125 96.375 694.683594 C 94.808594 694.292969 93.253906 693.863281 91.707031 693.394531 C 90.160156 692.925781 88.628906 692.421875 87.109375 691.878906 C 85.589844 691.335938 84.082031 690.753906 82.589844 690.136719 C 81.097656 689.519531 79.621094 688.867188 78.164062 688.175781 C 76.703125 687.488281 75.261719 686.761719 73.835938 686 C 72.414062 685.238281 71.007812 684.445312 69.625 683.613281 C 68.238281 682.785156 66.875 681.921875 65.53125 681.023438 C 64.191406 680.128906 62.871094 679.199219 61.574219 678.238281 C 60.277344 677.277344 59.003906 676.285156 57.753906 675.257812 C 56.507812 674.234375 55.285156 673.179688 54.089844 672.097656 C 52.894531 671.011719 51.722656 669.898438 50.582031 668.757812 C 49.441406 667.617188 48.328125 666.445312 47.242188 665.25 C 46.160156 664.054688 45.105469 662.832031 44.082031 661.585938 C 43.058594 660.335938 42.0625 659.0625 41.101562 657.765625 C 40.140625 656.46875 39.210938 655.148438 38.316406 653.808594 C 37.417969 652.464844 36.554688 651.101562 35.726562 649.714844 C 34.894531 648.332031 34.101562 646.925781 33.339844 645.503906 C 32.578125 644.078125 31.851562 642.636719 31.164062 641.175781 C 30.472656 639.71875 29.820312 638.242188 29.203125 636.75 C 28.585938 635.257812 28.003906 633.75 27.460938 632.230469 C 26.917969 630.710938 26.414062 629.179688 25.945312 627.632812 C 25.476562 626.085938 25.046875 624.53125 24.65625 622.964844 C 24.261719 621.398438 23.910156 619.824219 23.597656 618.242188 C 23.28125 616.65625 23.007812 615.066406 22.769531 613.46875 C 22.535156 611.871094 22.339844 610.269531 22.179688 608.664062 C 22.023438 607.058594 21.90625 605.445312 21.828125 603.835938 C 21.75 602.222656 21.710938 600.609375 21.710938 598.992188 L 21.710938 179.242188 C 21.710938 177.625 21.75 176.011719 21.828125 174.398438 C 21.90625 172.789062 22.023438 171.175781 22.179688 169.570312 C 22.339844 167.964844 22.535156 166.363281 22.769531 164.765625 C 23.007812 163.167969 23.28125 161.578125 23.597656 159.992188 C 23.910156 158.410156 24.261719 156.835938 24.65625 155.269531 C 25.046875 153.703125 25.476562 152.148438 25.945312 150.601562 C 26.414062 149.054688 26.917969 147.523438 27.460938 146.003906 C 28.003906 144.484375 28.585938 142.976562 29.203125 141.484375 C 29.820312 139.992188 30.472656 138.515625 31.164062 137.058594 C 31.851562 135.597656 32.578125 134.15625 33.339844 132.730469 C 34.101562 131.308594 34.894531 129.902344 35.726562 128.519531 C 36.554688 127.132812 37.417969 125.769531 38.316406 124.425781 C 39.210938 123.085938 40.140625 121.765625 41.101562 120.46875 C 42.0625 119.171875 43.058594 117.898438 44.082031 116.648438 C 45.105469 115.402344 46.160156 114.179688 47.242188 112.984375 C 48.328125 111.789062 49.441406 110.617188 50.582031 109.476562 C 51.722656 108.335938 52.894531 107.222656 54.089844 106.136719 C 55.285156 105.054688 56.507812 104 57.753906 102.976562 C 59.003906 101.949219 60.277344 100.957031 61.574219 99.996094 C 62.871094 99.035156 64.191406 98.105469 65.53125 97.210938 C 66.875 96.3125 68.238281 95.449219 69.625 94.621094 C 71.007812 93.789062 72.414062 92.996094 73.835938 92.234375 C 75.261719 91.472656 76.703125 90.746094 78.164062 90.058594 C 79.621094 89.367188 81.097656 88.714844 82.589844 88.097656 C 84.082031 87.480469 85.589844 86.898438 87.109375 86.355469 C 88.628906 85.8125 90.160156 85.308594 91.707031 84.839844 C 93.253906 84.371094 94.808594 83.941406 96.375 83.550781 C 97.941406 83.15625 99.515625 82.804688 101.097656 82.492188 C 102.683594 82.175781 104.273438 81.902344 105.871094 81.664062 C 107.46875 81.429688 109.070312 81.234375 110.675781 81.074219 C 112.285156 80.917969 113.894531 80.800781 115.503906 80.722656 C 117.117188 80.644531 118.730469 80.605469 120.347656 80.605469 L 540.496094 80.605469 C 556.382812 80.667969 563.40625 100.660156 551.101562 110.6875 L 550.179688 111.441406 C 548.660156 112.679688 546.976562 113.628906 545.128906 114.28125 C 543.28125 114.9375 541.375 115.265625 539.417969 115.261719 C 487.582031 115.132812 120.347656 115.0625 120.347656 115.0625 C 84.910156 115.0625 56.179688 143.792969 56.179688 179.226562 L 56.179688 598.992188 C 56.179688 634.429688 84.910156 663.160156 120.347656 663.160156 L 540.105469 663.160156 C 575.542969 663.160156 604.269531 634.429688 604.269531 598.992188 L 604.269531 234.386719 C 604.269531 233.109375 604.410156 231.847656 604.691406 230.601562 C 604.972656 229.351562 605.386719 228.152344 605.9375 226.996094 C 606.484375 225.84375 607.152344 224.761719 607.941406 223.757812 C 608.730469 222.75 609.621094 221.84375 610.609375 221.035156 C 621.859375 211.847656 638.734375 219.859375 638.734375 234.386719 Z M 674.046875 65.59375 C 571.699219 110.878906 436.5 196.953125 310.710938 359.683594 L 209.902344 248.53125 C 173.835938 208.765625 110.539062 252.695312 135.175781 300.394531 L 268.0625 557.703125 C 288.839844 597.933594 347.179688 595.582031 364.597656 553.78125 C 410.949219 442.542969 508.34375 269.238281 702.851562 112.894531 C 728.292969 92.449219 703.898438 52.375 674.046875 65.59375 Z M 674.046875 65.59375 " fill-opacity="1" fill-rule="nonzero"/></g></svg>