<svg xmlns="http://www.w3.org/2000/svg" xmlns:xlink="http://www.w3.org/1999/xlink" width="1000" zoomAndPan="magnify" viewBox="0 0 750 749.999995" height="1000" preserveAspectRatio="xMidYMid meet" version="1.0"><defs><clipPath id="c194f86c77"><path d="M 15 133.207031 L 735 133.207031 L 735 616.957031 L 15 616.957031 Z M 15 133.207031 " clip-rule="nonzero"/></clipPath></defs><g clip-path="url(#c194f86c77)"><path fill="#ff9b01" d="M 661.332031 275.25 C 662.847656 271.578125 664.296875 267.886719 665.84375 264.234375 C 672.996094 247.371094 680.222656 230.535156 687.28125 213.632812 C 688.203125 211.421875 690.460938 208.277344 686.886719 206.714844 C 682.921875 204.976562 683.019531 209.097656 682.082031 211.25 C 677.003906 222.84375 671.992188 234.460938 667.015625 246.097656 C 663.160156 255.125 658.851562 263.953125 655.5625 273.230469 C 654.378906 276.566406 655.660156 277.769531 658.421875 278.433594 C 660.445312 278.222656 660.765625 276.617188 661.332031 275.25 Z M 682.269531 371.527344 C 682.726562 375.179688 685.507812 375.921875 688.535156 375.890625 C 691.3125 375.871094 692.460938 374.40625 692.300781 371.484375 C 691.015625 347.378906 693.15625 323.40625 695.261719 299.429688 C 698.035156 267.722656 700.820312 236.023438 706.75 204.699219 C 707.382812 201.363281 707.875 197.972656 708.042969 194.59375 C 708.140625 192.574219 706.820312 190.863281 704.6875 190.648438 C 702.609375 190.441406 702.625 192.515625 702.136719 193.84375 C 701.421875 195.796875 700.796875 197.789062 700.230469 199.796875 C 693.523438 223.390625 690.464844 247.605469 687.605469 271.886719 C 684.394531 299.164062 682.265625 326.503906 681.167969 353.933594 C 680.960938 359.835938 681.539062 365.691406 682.269531 371.527344 Z M 208.429688 494.679688 C 206.515625 493.808594 205.242188 495.1875 203.964844 496.308594 C 192.582031 506.34375 181.765625 516.976562 171.3125 527.976562 C 170.042969 529.3125 169.058594 531.023438 168.324219 532.730469 C 167.890625 533.726562 168.445312 534.957031 169.433594 535.746094 C 170.71875 536.78125 171.496094 535.847656 172.226562 534.972656 C 182.78125 522.230469 195.316406 511.441406 206.921875 499.730469 C 207.832031 498.8125 208.585938 497.738281 209.558594 496.566406 C 209.144531 495.832031 208.945312 494.910156 208.429688 494.679688 Z M 135.214844 546.867188 C 152.699219 530.070312 170.589844 513.730469 189.796875 498.90625 C 213.734375 480.421875 237.902344 462.25 262.949219 445.28125 C 264.214844 444.421875 265.828125 443.578125 265.019531 441.769531 C 264 439.5 262.078125 440.496094 260.671875 441.277344 C 256.542969 443.570312 252.390625 445.867188 248.472656 448.496094 C 213.558594 471.878906 180.125 497.167969 149.394531 525.90625 C 142.613281 532.242188 135.886719 538.644531 129.167969 545.054688 C 128.257812 545.914062 126.953125 546.800781 128.042969 548.382812 C 128.710938 549.335938 129.53125 550.105469 131 550.191406 C 132.875 549.898438 133.898438 548.132812 135.214844 546.867188 Z M 717.335938 162.128906 C 716.882812 161.957031 716.4375 161.789062 715.988281 161.613281 C 705.542969 171.535156 694.9375 181.296875 684.679688 191.40625 C 638.71875 236.699219 592.953125 282.207031 542.570312 322.707031 C 511.492188 347.6875 481.976562 374.476562 451.929688 400.652344 C 448.480469 403.660156 447.648438 405.125 452.765625 407.097656 C 459.828125 409.820312 466.621094 413.257812 473.503906 416.445312 C 529.996094 442.605469 579.121094 479.8125 626.644531 519.269531 C 647.660156 536.714844 667.65625 555.390625 688.328125 573.257812 C 694.535156 578.625 701.476562 583.144531 708.746094 588.550781 C 707.28125 566.6875 706.199219 546.066406 704.453125 525.503906 C 701.820312 494.460938 701.371094 463.339844 701.910156 432.257812 C 702.71875 385.039062 704.738281 337.84375 708.09375 290.730469 C 710.515625 256.691406 713.253906 222.683594 715.777344 188.652344 C 716.4375 179.824219 716.824219 170.972656 717.335938 162.128906 Z M 39.042969 596.574219 C 41.472656 594.015625 43.109375 592.203125 44.839844 590.480469 C 86.753906 548.652344 130.566406 508.929688 177 472.171875 C 208.535156 447.207031 241.566406 424.394531 277 405.25 C 281.460938 402.839844 282.328125 401.886719 278.460938 397.695312 C 241.648438 357.785156 202.828125 319.851562 164.6875 281.246094 C 124.023438 240.085938 85.917969 196.441406 44.363281 156.121094 C 43.097656 154.894531 42.328125 152.839844 40.332031 152.910156 C 47.015625 300.535156 41.296875 448.042969 39.042969 596.574219 Z M 38.863281 606.222656 C 42.171875 606.222656 43.867188 606.222656 45.558594 606.222656 C 75.90625 606.238281 106.191406 603.898438 136.558594 604.214844 C 184.933594 604.714844 233.320312 602.214844 281.6875 603.792969 C 317.90625 604.980469 354.148438 603.515625 390.355469 605.554688 C 423.335938 607.410156 456.382812 605.777344 489.402344 606.660156 C 524.328125 607.59375 559.167969 604.328125 594.085938 603.902344 C 626.695312 603.5 659.144531 599.589844 691.710938 598.003906 C 696.742188 597.761719 701.761719 597.246094 707.980469 596.765625 C 698.152344 589.519531 688.894531 583.371094 680.503906 576.058594 C 653.761719 552.746094 627.730469 528.636719 599.90625 506.535156 C 552.726562 469.054688 502.8125 436.292969 446.832031 413.324219 C 442.15625 411.410156 439.1875 411.5625 435.277344 414.964844 C 419.632812 428.585938 402.832031 440.59375 383.925781 449.394531 C 362.734375 459.253906 342.816406 457.660156 324.179688 442.996094 C 313.542969 434.625 303.824219 425.265625 294.988281 415.121094 C 290.808594 410.316406 287.707031 410.484375 282.65625 413.222656 C 235.460938 438.820312 192.644531 470.640625 151.390625 504.746094 C 126.238281 525.539062 102.140625 547.527344 77.949219 569.40625 C 65.070312 581.054688 52.644531 593.210938 38.863281 606.222656 Z M 706.960938 152.460938 C 706.8125 151.742188 706.664062 151.03125 706.515625 150.3125 C 488.722656 154.714844 270.96875 149.320312 51.492188 149.1875 C 53.71875 150.851562 55.039062 151.636719 56.117188 152.675781 C 80.015625 175.714844 104.34375 198.285156 127.5625 222.066406 C 193.050781 289.136719 261.886719 352.886719 325.699219 421.628906 C 332.148438 428.574219 339.484375 434.609375 347.285156 440.109375 C 354.625 445.289062 361.597656 445.535156 369.5625 441.433594 C 385.683594 433.144531 400.824219 423.398438 414.484375 411.570312 C 445.183594 384.992188 475.351562 357.796875 506.203125 331.398438 C 531.136719 310.0625 557.191406 290.039062 581.832031 268.339844 C 618.152344 236.347656 652.828125 202.574219 688.226562 169.582031 C 694.417969 163.8125 700.714844 158.164062 706.960938 152.460938 Z M 250.019531 134.628906 C 314.085938 133.261719 363.046875 133.210938 411.980469 134.90625 C 485.9375 137.472656 559.917969 138.972656 633.917969 138.550781 C 662.40625 138.386719 690.800781 138.988281 719.152344 141.765625 C 727.929688 142.625 728.976562 143.136719 730.910156 151.769531 C 732.953125 160.890625 732.742188 170.253906 732.90625 179.527344 C 733.679688 222.609375 731.351562 265.636719 730.320312 308.683594 C 729.023438 362.933594 727.660156 417.1875 728.988281 471.449219 C 730.027344 513.914062 732.082031 556.34375 734.882812 598.730469 C 735.082031 601.734375 734.058594 603.414062 731.804688 604.78125 C 728.976562 606.5 725.867188 607.238281 722.578125 607.3125 C 681.261719 608.238281 640.148438 613.003906 598.847656 614.253906 C 524.511719 616.503906 450.199219 616.773438 375.832031 614.355469 C 295.25 611.730469 214.613281 612.234375 133.988281 612.8125 C 111.980469 612.972656 89.96875 612.300781 67.972656 613.734375 C 60.976562 614.191406 53.945312 614.003906 46.9375 613.285156 C 42.058594 612.789062 37.214844 612.242188 32.414062 614.421875 C 29.65625 615.671875 26.441406 615.261719 23.414062 614.796875 C 18.414062 614.015625 15.664062 611.34375 15.632812 606.015625 C 15.597656 600.136719 15.011719 594.257812 15.09375 588.382812 C 15.910156 530.332031 16.222656 472.269531 18.210938 414.242188 C 19.992188 362.109375 21.660156 309.96875 23.894531 257.851562 C 25.46875 221.265625 26.875 184.6875 26.992188 148.0625 C 27.027344 137.519531 28.808594 135.910156 39.136719 135.859375 C 114.46875 135.5 189.796875 134.269531 250.019531 134.628906 " fill-opacity="1" fill-rule="nonzero"/></g></svg>