<?xml version="1.0" encoding="UTF-8"?>
<!-- Created with Inkscape (http://www.inkscape.org/) -->
<svg width="156.8mm" height="124.8mm" version="1.1" viewBox="0 0 156.8 124.8" xml:space="preserve" xmlns="http://www.w3.org/2000/svg" xmlns:cc="http://creativecommons.org/ns#" xmlns:dc="http://purl.org/dc/elements/1.1/" xmlns:rdf="http://www.w3.org/1999/02/22-rdf-syntax-ns#"><title>MH3 LearnCon Logo</title><g transform="translate(-15.299 -76.112)"><g transform="translate(-7.9045 3.2741)"><path d="m122.77 190.09c-5.0334-1.085-7.6443-5.6406-7.0904-12.372 0.42631-5.1805 2.9019-8.5661 7.175-9.8129 1.393-0.40643 4.2224-0.40862 5.5808-4e-3 1.3437 0.39995 2.5477 1.0242 2.8741 1.4903 0.28144 0.40181 0.39114 2.916 0.13416 3.0748-0.0724 0.0447-0.54641-0.18018-1.0534-0.49982-1.5771-0.9944-2.6061-1.3077-4.3183-1.3148-1.8419-8e-3 -2.7002 0.31913-3.9781 1.5145-1.629 1.5237-2.2915 3.5626-2.2787 7.0121 0.0124 3.3382 0.65726 5.1998 2.3185 6.6934 1.127 1.0133 2.1901 1.3527 4.1923 1.3386 1.7474-0.0123 2.6786-0.29021 4.2941-1.2814 0.45253-0.27763 0.86528-0.46229 0.91723-0.41034 0.17912 0.17912 0.094 2.5521-0.1049 2.9237-0.10963 0.20486-0.67478 0.5984-1.2559 0.87453-2.0478 0.9731-5.0336 1.2849-7.4066 0.77337zm17.18 0.0377c-2.6838-0.68264-4.3116-2.3714-5.0049-5.1922-0.33466-1.3618-0.28823-4.5857 0.0841-5.842 0.90161-3.0419 2.7472-4.8098 5.6676-5.4288 2.1147-0.44824 4.7325-0.19099 6.4329 0.63216 1.7232 0.8342 3.0275 2.7792 3.4186 5.0978 0.27955 1.6573 0.12418 4.4911-0.32279 5.8874-0.69022 2.1562-2.2203 3.7763-4.3006 4.5537-1.296 0.48431-4.5864 0.64505-5.975 0.29188zm4.591-2.8034c0.84026-0.38164 1.6626-1.3446 2.0319-2.3793 0.15143-0.42432 0.31609-1.5133 0.36591-2.42 0.2314-4.2116-1.1984-6.3948-4.1878-6.3948-1.7297 0-2.868 0.69285-3.6474 2.2202-1.1585 2.27-0.87034 6.4322 0.56323 8.1359 0.24502 0.2912 0.75346 0.66934 1.1298 0.84031 0.92794 0.4215 2.8138 0.42038 3.7443-2e-3zm10.684 2.5783c-0.0621-0.0621-0.11289-3.6734-0.11289-8.0252 0-7.0588 0.0289-7.9234 0.26785-8.0151 0.38105-0.14622 2.3175-0.12261 2.5594 0.0312 0.11259 0.0716 0.22544 0.6099 0.254 1.2116 0.0297 0.62587 0.1339 1.11 0.24689 1.1473 0.10753 0.0355 0.66735-0.35654 1.2441-0.87113 0.57671-0.51459 1.4793-1.1472 2.0058-1.4057 0.83678-0.41093 1.1491-0.46914 2.4813-0.4625 1.8401 9e-3 2.7869 0.3943 3.8007 1.5461 1.2366 1.4049 1.2596 1.5551 1.3249 8.6547l0.058 6.3137-3.4903-0.0968-0.0847-5.588c-0.0814-5.3698-0.0994-5.6155-0.46183-6.2934-0.51525-0.96367-1.2578-1.4562-2.3294-1.5451-1.0488-0.087-1.9284 0.30269-3.0806 1.3647-1.2712 1.1717-1.2402 0.99949-1.2402 6.8887v5.2577h-1.6651c-0.91581 0-1.7159-0.0508-1.778-0.11289zm-37.033-26.022c-0.0735-0.0775-35.039-0.3288-40.126-0.28835-0.79163 6e-3 -10.074 0.051-20.628 0.0993-20.774 0.0951-19.208 0.14728-24.754-0.82493-1.2832-0.22496-2.6429-0.36727-3.0997-0.3244-0.62889 0.059-0.89321 5e-3 -1.1639-0.23776-0.32088-0.28778-0.3415-0.43913-0.24588-1.8046 0.05741-0.81979 0.17363-1.6199 0.25828-1.778 0.18067-0.33748 1.6166-0.78003 3.4045-1.0493 1.5504-0.23348 9.8073-0.14436 11.769 0.12702 3.057 0.42298 12.18 0.78482 16.256 0.6448 3.1904-0.10959 21.437-0.45786 23.453-0.44765 17.298 0.0877 33.236-0.11115 39.116-0.48791 3.0596-0.19605 24.839-0.27311 27.94-0.0989 1.7259 0.097 2.9498 0.0579 4.9953-0.15943 1.8112-0.19245 3.2707-0.25232 4.4027-0.18058 0.93133 0.059 3.1411 0.0146 4.9107-0.0987 1.7695-0.11331 4.2318-0.19636 5.4717-0.18455 2.16 0.0206 2.2858 0.0413 3.0054 0.49591 0.82909 0.52378 0.86663 0.5915 0.49759 0.89777-0.1397 0.11595-0.254 0.29256-0.254 0.39247 0 0.0999-0.20895 0.41444-0.46435 0.69894-0.25539 0.28449-0.35445 0.42201-0.22013 0.30559 0.31172-0.27016 0.82809-0.26085 1.3424 0.0242 0.26079 0.14455 0.33578 0.26595 0.21167 0.34266-0.10572 0.0653-0.19221 0.25736-0.19221 0.42673 0 0.16936-0.11622 0.40439-0.25827 0.52228-0.23056 0.19135-0.22775 0.24809 0.0262 0.52874 0.25412 0.2808 0.25733 0.34604 0.03 0.61072-0.13998 0.16298-0.30506 0.4382-0.36686 0.6116-0.0912 0.25602-0.21541 0.29328-0.66074 0.19826-0.30161-0.0644-1.6303-0.15614-2.9527-0.20396-2.0228-0.0731-2.4654-0.0442-2.7893 0.18274-0.44545 0.312-3.039 0.38246-3.7752 0.10256-0.3166-0.12037-0.79826-0.0883-1.7217 0.1146-1.0835 0.23808-1.509 0.25229-2.7464 0.0917-0.87997-0.11421-2.8834-0.15866-5.0203-0.11139-1.9558 0.0433-3.7465 0.0731-3.9793 0.0663-0.23283-7e-3 -3.1342-0.0243-6.4476-0.0389-5.3984-0.0238-6.1305 6e-3 -7.047 0.28312-0.96614 0.29253-1.0978 0.29445-2.3792 0.0348-1.3973-0.28313-3.1595-0.20802-5.6577 0.24117-0.52657 0.0947-1.8601 0.1575-2.9633 0.13962-1.1033-0.0179-3.1489 0.0268-4.5459 0.0993s-2.5806 0.0889-2.6303 0.0365z" fill="#fd9100"/><path d="m52.408 191.12c-2.3066-0.41908-4.4158-1.859-5.3203-3.6318-0.99913-1.9585-1.3576-6.0043-0.75068-8.4717 0.86033-3.4974 3.3441-5.8131 6.7414-6.2853 2.9827-0.41452 6.1179 0.5666 7.5248 2.3548 1.2272 1.5598 1.7115 3.1328 1.7144 5.568 0.0019 1.6765-0.01408 1.751-0.49188 2.286l-0.49389 0.55301-9.8922 0.0996 0.09148 0.68201c0.05031 0.37511 0.28858 0.97986 0.52949 1.3439 1.093 1.6516 3.5862 1.9136 7.2263 0.75953 1.8568-0.58872 2.3487-0.23596 2.3522 1.687 0.0027 1.4816-0.35716 1.9836-1.7556 2.4489-2.3928 0.79627-5.1836 1.0226-7.4756 0.60613zm5.8476-1.0261c2.336-0.54413 2.54-0.72331 2.54-2.2306 0-1.2027-0.03038-1.223-1.2064-0.8049-1.233 0.43832-2.9838 0.7526-4.1926 0.7526-2.1291 0-3.5699-0.69311-4.2624-2.0504-0.32237-0.63189-0.70619-2.6442-0.55362-2.9026 0.04125-0.0699 2.3395-0.127 5.1073-0.127 6.1217 0 5.785 0.11342 5.785-1.9486 0-3.397-1.1455-5.5748-3.5346-6.7199-1.0026-0.48056-1.322-0.54569-2.9989-0.61156-1.4438-0.0567-2.1074-7e-3 -2.8765 0.21691-3.4302 0.99718-5.3162 4.0022-5.3162 8.4705 0 2.7975 0.61567 4.7458 1.9507 6.1731 1.477 1.5791 3.6772 2.2688 6.7641 2.1203 0.93133-0.0448 2.1886-0.19679 2.794-0.3378zm-7.6587-9.7649c-0.13322-0.39965 0.20258-1.9096 0.59368-2.6696 1.0403-2.0215 4.0477-2.5064 5.644-0.91003 0.64553 0.64553 1.1325 2.0621 1.0505 3.0556l-0.05286 0.64012-3.5831 0.0456c-2.7097 0.0345-3.6-5e-3 -3.6522-0.16168zm6.5025-1.154c-0.09511-1.016-0.77042-1.9637-1.6345-2.2937-1.8732-0.71536-3.5115 0.23393-3.9188 2.2707l-0.1024 0.512 0.90826 0.0654c0.49954 0.0359 1.7846 0.0593 2.8556 0.0519l1.9473-0.0135zm11.677 12.02c-1.7476-0.3687-3.2934-1.5428-3.9764-3.0203-0.2956-0.63945-0.36393-1.1052-0.36393-2.4806 0-1.5645 0.03864-1.7632 0.508-2.6116 1.1007-1.9896 3.2785-2.896 7.5777-3.1538l1.8203-0.10916v-0.66945c0-0.71297-0.31047-1.4632-0.75985-1.8362-0.8433-0.69988-3.3199-0.47238-5.6377 0.51788-1.5175 0.64834-1.6162 0.66853-2.0094 0.4109-0.57753-0.37841-0.77689-1.0127-0.70195-2.2333 0.07506-1.2227 0.32541-1.5783 1.5475-2.198 1.863-0.94474 4.8801-1.3935 7.2228-1.0743 2.567 0.34975 4.2584 1.4428 5.1142 3.305 0.38194 0.8311 0.39004 0.96984 0.44025 7.5434 0.06042 7.9114 0.22267 7.316-2.0214 7.4179-1.6304 0.074-2.3254-0.16016-2.4591-0.82872l-0.09321-0.46606-0.70203 0.47124c-1.4055 0.94344-3.7747 1.3802-5.5057 1.015zm4.1637-1.2629c0.52524-0.24047 1.2867-0.70902 1.6921-1.0412 0.40542-0.33221 0.84456-0.5628 0.97585-0.51242 0.14817 0.0569 0.25844 0.40013 0.2907 0.90496l0.05198 0.81335 1.0089 0.0518c0.55492 0.0285 1.1836 8e-3 1.397-0.0455l0.38806-0.0974v-5.9998c0-3.6785-0.07117-6.3316-0.18396-6.8575-0.29944-1.3963-1.0662-2.3619-2.4234-3.0522l-1.168-0.59404h-2.5574c-2.3444 0-2.6779 0.0395-4.0052 0.47466-0.79631 0.26106-1.6726 0.65403-1.9473 0.87327-0.45621 0.36407-0.49899 0.48783-0.49361 1.4278 0.0079 1.3761 0.16858 1.5048 1.2161 0.97394 1.6037-0.81264 2.9096-1.1531 4.4703-1.1653 1.1666-9e-3 1.5856 0.0567 2.0363 0.3199 0.88026 0.5141 1.2796 1.2483 1.4156 2.6024 0.16604 1.6534 0.1224 1.6887-2.0954 1.696-5.0736 0.0166-7.6575 1.5035-7.9352 4.566-0.22877 2.523 1.3069 4.5368 3.8719 5.0775 1.2058 0.25417 2.9205 0.0756 3.9944-0.41606zm-2.955-2.2031c-0.76532-0.33271-1.2298-1.1657-1.2293-2.2043 0.0011-1.9307 1.4597-2.7854 4.7638-2.7914 1.7162-3e-3 1.6691-0.0553 1.6691 1.8507v1.3176l-0.85025 0.79531c-0.46764 0.43742-1.1129 0.90505-1.4339 1.0392-0.73564 0.30737-2.2043 0.30375-2.9195-7e-3zm2.5544-0.6591c0.30646-0.12805 0.83972-0.48086 1.185-0.78403 0.60939-0.53505 0.62693-0.58285 0.59813-1.6298l-0.02967-1.0786h-1.0678c-2.5016 0-3.6244 0.59088-3.6244 1.9073 0 0.83924 0.20664 1.1844 0.93133 1.5557 0.63016 0.32286 1.2824 0.33246 2.0074 0.0295zm51.106 4.1225c-4.2777-0.58634-7.2743-3.3-8.409-7.615-0.43965-1.6718-0.53394-5.6263-0.17918-7.5142 1.1099-5.9063 4.9443-9.2524 10.615-9.2634 2.6819-5e-3 5.2824 0.83412 6.2882 2.0295 0.80046 0.9513 0.81699 3.5719 0.0275 4.3614-0.21779 0.21779-0.46141 0.39599-0.54137 0.39599-0.08 0-0.66785-0.31511-1.3064-0.70024-1.8026-1.0872-2.8015-1.3802-4.4212-1.2966-1.5967 0.0824-2.5765 0.5481-3.4361 1.6334-1.1042 1.3942-1.5437 3.0452-1.5437 5.7994 0 3.3212 0.78827 5.4437 2.4298 6.5421 1.1144 0.74575 1.9704 0.9479 3.5606 0.84085 1.1797-0.0794 1.5295-0.18973 3.0286-0.95515 1.1129-0.56824 1.8086-0.82926 2.0261-0.76023 0.4756 0.15095 0.80833 1.0869 0.80833 2.2738 0 1.7675-0.5235 2.5297-2.2671 3.3008-1.8887 0.83526-4.6034 1.2122-6.6802 0.92753zm4.5448-1.1483c1.5367-0.36781 3.0485-1.1492 3.3381-1.7254 0.23487-0.46726 0.28999-2.3335 0.0787-2.6661-0.0995-0.15673-0.50271-0.021-1.5721 0.52931-1.8312 0.94226-3.3894 1.2404-5.0086 0.95848-3.5263-0.61408-5.1959-3.231-5.1903-8.135 5e-3 -4.051 1.2332-6.648 3.6974-7.8156 0.8745-0.41437 1.2215-0.48144 2.4913-0.48155 1.662-1.6e-4 2.6476 0.29282 4.2682 1.2687 0.53998 0.32516 1.0497 0.5492 1.1328 0.49786 0.0831-0.0513 0.15102-0.72864 0.15102-1.5051 0-1.395-7e-3 -1.4178-0.57879-1.92-1.1737-1.0305-3.801-1.6757-6.1032-1.4987-3.7605 0.28905-6.4157 2.041-7.9578 5.2505-1.0394 2.1634-1.3611 3.7266-1.3462 6.5426 0.0147 2.7909 0.32393 4.3265 1.2489 6.2028 1.1637 2.3606 3.1071 3.9079 5.6948 4.534 1.4386 0.3481 4.1206 0.33068 5.6556-0.0367zm12.25 1.1371c-2.8985-0.48418-5.1765-2.4031-5.9937-5.049-0.47068-1.5239-0.66662-3.7027-0.48864-5.4335 0.4121-4.0073 2.3938-6.612 5.8249-7.6558 1.4264-0.43395 4.3816-0.50957 5.849-0.14966 4.0173 0.9853 5.9689 3.8343 5.9848 8.7368 7e-3 2.297-0.26002 3.5937-1.0943 5.3053-1.588 3.258-5.6798 4.9812-10.082 4.2458zm5.3553-1.245c2.4282-0.87872 4.0373-2.7367 4.6609-5.3819 0.2958-1.2546 0.33314-4.3123 0.0682-5.5829-0.43518-2.0868-1.6937-3.8527-3.3467-4.696-2.3048-1.1758-6.4252-1.1256-8.6877 0.10576-0.96472 0.52506-2.3308 1.9149-2.8149 2.8638-0.72984 1.4306-0.957 2.589-0.95956 4.8931-2e-3 1.808 0.065 2.4168 0.37504 3.4073 0.68673 2.1938 1.915 3.5525 3.8891 4.302 1.7408 0.66093 5.1132 0.70488 6.8156 0.0888zm-4.7278-2.5158c-1.5949-0.50846-2.5538-2.4857-2.571-5.3017-0.0162-2.6538 0.49317-4.1822 1.7243-5.1733 1.2606-1.0149 3.7136-1.0399 5.0101-0.0509 1.9455 1.4839 2.368 6.4189 0.77507 9.0535-0.86489 1.4305-3.0376 2.0783-4.9384 1.4724zm3.2315-0.89364c1.3362-0.68353 1.9055-2.2674 1.8129-5.0431-0.0761-2.2792-0.45321-3.2474-1.5469-3.9711-0.57022-0.37734-0.87571-0.45449-1.7998-0.45449-1.5208 0-2.1456 0.37561-2.7999 1.683-0.42256 0.84443-0.51244 1.2524-0.57103 2.5921-0.13982 3.1969 0.70598 5.022 2.5327 5.4649 0.68417 0.16589 1.7574 0.0432 2.372-0.27123zm-60.386 4.2363c-0.27727-0.14458-0.56186-0.35366-0.63241-0.46462s-0.12944-3.9047-0.13087-8.4305c-0.0031-9.7584-0.23066-8.8739 2.2834-8.8739 1.7136 0 2.1484 0.19077 2.3605 1.0357l0.10493 0.41809 0.71463-0.57879c1.1675-0.9456 1.7849-1.1909 3.0006-1.1925 1.2554-2e-3 2.0092 0.29403 2.3209 0.9102 0.29742 0.58801 0.28027 3.0818-0.02624 3.8154-0.27884 0.66736-0.68632 0.74435-2.0332 0.38412-1.0212-0.27312-1.7181 0.0642-2.6675 1.2912l-0.71658 0.92612 0.05123 4.7926c0.03352 3.1362-0.01174 4.9563-0.13096 5.2664-0.11194 0.29113-0.40904 0.56864-0.7705 0.71966-0.80276 0.33542-3.0703 0.32377-3.728-0.0191zm3.2558-0.68843 0.381-0.10211v-10.083l0.75787-1.0295c0.41683-0.56622 1.078-1.2414 1.4693-1.5003 0.71331-0.47205 1.1733-0.52716 2.9375-0.35193l0.508 0.0505 0.0431-1.524c0.02371-0.8382-0.02823-1.6344-0.11541-1.7692-0.10222-0.15815-0.54569-0.26989-1.2489-0.31466-1.444-0.092-2.0621 0.21512-3.3888 1.6834-0.57607 0.63756-1.1393 1.16-1.2516 1.1608-0.13626 1e-3 -0.22081-0.40664-0.254-1.2249l-0.04975-1.2266-0.78238-0.14241c-0.4306-0.0784-1.1158-0.0765-1.524 4e-3l-0.74162 0.14664-0.0444 7.9533c-0.0409 7.3266-0.02167 7.97 0.24403 8.165 0.29851 0.21906 2.3692 0.29007 3.06 0.10494zm9.75 0.71645c-0.29535-0.13393-0.6192-0.39709-0.71967-0.58481-0.23931-0.44716-0.25531-16.167-0.01691-16.613 0.23022-0.43017 1.0599-0.68402 2.2356-0.68402 1.4305 0 2.1219 0.3299 2.2625 1.0795l0.11204 0.59722 1.0559-0.66684c1.833-1.1577 3.3682-1.5068 5.1801-1.1783 2.8589 0.51842 4.4998 2.3892 4.8965 5.5826 0.098 0.78919 0.17827 3.7377 0.17827 6.5522v5.1173l-0.40853 0.47511c-0.39945 0.46454-0.44811 0.4751-2.1884 0.4751-1.5455 0-1.8429-0.047-2.2585-0.3567l-0.47861-0.35671-0.0847-5.57c-0.0746-4.9082-0.12029-5.6352-0.38453-6.1187-0.7101-1.2995-2.1053-1.4985-3.472-0.49524-1.4555 1.0684-1.3928 0.76666-1.3928 6.7012v5.2458l-0.40111 0.46631c-0.3767 0.43793-0.49777 0.46962-1.9897 0.52071-1.1203 0.0384-1.7468-0.0174-2.1256-0.18908zm3.3421-0.78502c0.31321-0.16762 0.32754-0.40916 0.32754-5.5213v-5.346l0.50337-0.63556c0.27686-0.34956 0.92197-0.92386 1.4336-1.2762 0.78988-0.54401 1.0658-0.64066 1.8289-0.64066 1.4003 0 2.2147 0.53708 2.7787 1.8326 0.25108 0.57669 0.30226 1.4375 0.36372 6.1172 0.0708 5.393 0.0751 5.4471 0.43392 5.5434 0.59336 0.15921 2.4227 0.11491 2.9103-0.0705l0.45329-0.17234-0.0804-5.966c-0.0888-6.5819-0.14503-6.9858-1.1867-8.5173-0.35732-0.52539-0.87365-0.98905-1.4801-1.3291-0.86765-0.48654-1.0471-0.52225-2.6247-0.52225-1.4683 0-1.8171 0.0582-2.6247 0.43792-0.51223 0.24086-1.3611 0.83141-1.8864 1.3123-1.2981 1.1885-1.4722 1.1592-1.5349-0.25842l-0.05007-1.1328-0.58853-0.15192c-0.32369-0.0836-0.99044-0.10169-1.4817-0.0403l-0.89314 0.11159v8.1034c0 7.5751 0.01932 8.1084 0.29633 8.1808 0.58935 0.15401 2.7816 0.11262 3.1015-0.0586zm54.894 0.76897c-0.30672-0.1333-0.62623-0.43598-0.71967-0.68173-0.22031-0.57948-0.22661-15.823-7e-3 -16.401 0.19204-0.50509 1.0176-0.78086 2.3418-0.78226 1.2254-1e-3 2.0283 0.35576 2.1624 0.96156 0.058 0.26226 0.11789 0.53061 0.13303 0.59633 0.0151 0.0657 0.48472-0.16983 1.0435-0.52347 1.5939-1.0087 2.4806-1.2793 4.1411-1.2637 2.832 0.0266 4.6697 1.2985 5.6307 3.8972 0.34441 0.93132 0.36916 1.346 0.43289 7.2531l0.0676 6.2653-0.44052 0.41368c-0.38159 0.35833-0.63865 0.42314-1.9216 0.48448-1.7435 0.0834-2.648-0.19613-2.916-0.90099-0.0981-0.25801-0.16825-2.5951-0.16825-5.6046 0-4.4234-0.0393-5.2396-0.27442-5.704-0.4216-0.83258-0.7383-1.1206-1.4396-1.3095-0.85996-0.23156-1.6732 0.1109-2.731 1.15l-0.80434 0.79016v5.3761c0 5.218-0.0103 5.3857-0.35039 5.7025-0.19272 0.17955-0.58324 0.37302-0.86783 0.42993-0.90667 0.18134-2.7421 0.0985-3.3127-0.1495zm3.4871-0.83045c0.14338-0.0886 0.19721-1.596 0.19721-5.523v-5.4011l0.91963-0.94195c1.8252-1.8694 3.7132-2.1145 5.0718-0.65831 0.85241 0.91363 0.95121 1.6713 0.95121 7.2938 0 5.9143-0.18398 5.3826 1.8627 5.3826 2.1018 0 1.9098 0.65629 1.8206-6.2245-0.064-4.9419-0.1256-6.1176-0.3582-6.8408-0.42886-1.3333-1.2514-2.4013-2.3136-3.0037-0.85732-0.48627-1.0477-0.5257-2.5381-0.5257-1.4703 0-1.7073 0.0473-2.7093 0.54118-0.60395 0.29765-1.5226 0.9202-2.0414 1.3834-0.52949 0.4728-1.0269 0.79058-1.1339 0.72443-0.10486-0.0648-0.2138-0.61116-0.24206-1.2141l-0.0514-1.0963h-2.8787v16.071l0.42333 0.12774c0.49997 0.15086 2.736 0.0803 3.0201-0.0953zm-125.94 0.6778c-0.86904-0.48167-0.85288-0.25822-0.85931-11.881-0.0047-8.5395 0.04-10.91 0.2102-11.143 0.27977-0.38261 1.2811-0.60905 2.6625-0.60212 1.3783 7e-3 2.2151 0.28679 2.4908 0.83306 0.16372 0.3245 0.21417 2.5028 0.21608 9.3303l0.0025 8.907 1.55 0.11003c0.85251 0.0605 2.4889 0.11002 3.6363 0.11002h2.0863l0.29213 0.55033c0.3093 0.58267 0.40803 2.23 0.18198 3.0362-0.28277 1.0084-0.13736 0.98606-6.3618 0.97951-4.408-5e-3 -5.7948-0.0569-6.1076-0.23031zm11.712-1.4147c0.07825-0.39582 0.07831-1.0435 1.25e-4 -1.4393l-0.14215-0.71966-7.6096-0.1694-0.0875-18.875-0.46425-0.12819c-0.75111-0.2074-3.0411-0.12804-3.3346 0.11556-0.23169 0.19229-0.2623 1.4458-0.2623 10.743 0 9.2788 0.0314 10.57 0.26519 10.904l0.26519 0.37861 11.228-0.0892zm61.456-40.125c-0.21343-0.0409-0.64563-0.33188-0.96043-0.64668-0.93377-0.93377-1.1841-2.447-1.049-6.3408 0.0598-1.7252 0.18273-3.7464 0.27307-4.4914 0.41168-3.3953 0.69263-5.4973 0.76227-5.7029 0.15168-0.4479 0.45386-4.7105 0.35584-5.0194-0.15094-0.47556-0.82875-0.70771-2.0663-0.70771-1.0228 0-1.1478-0.0411-1.6007-0.5259-0.53991-0.57798-0.62843-1.2594-0.31176-2.3997 0.2917-1.0504 1.1013-1.8002 2.7915-2.5851 2.022-0.93902 2.4618-1.4005 3.0092-3.1575 0.50419-1.6184 1.4886-5.6507 1.8937-7.7571 0.85236-4.4319 2.2804-10.754 2.9832-13.208 0.64659-2.2574 1.9885-5.6927 3.0758-7.874 1.5448-3.0991 2.8887-4.38 4.6083-4.3924 1.7223-0.0124 2.9636 1.0766 3.0999 2.7194 0.0682 0.82262 5e-3 1.0647-0.561 2.1468-0.35084 0.67078-0.93397 1.6564-1.2958 2.1902-1.0298 1.519-2.4231 4.4106-2.9186 6.0567-0.15417 0.51223-0.34916 1.1599-0.43331 1.4393-0.22732 0.75484-0.64828 2.5823-0.83863 3.6407-0.19632 1.0916-0.73172 3.585-1.1817 5.5033-1.376 5.866-2.0506 9.0088-2.0506 9.5532 0 1.3809 0.82907 1.4922 4.4311 0.59498 5.9998-1.4945 8.8304-2.5089 9.7486-3.4938 0.51981-0.55759 0.80615-1.5863 1.4044-5.0456 1.3026-7.532 3.6176-15.322 5.9788-20.12 0.9442-1.9183 1.9093-3.1069 3.0576-3.7655 1.0306-0.59114 1.878-0.63868 2.7034-0.15169 0.84988 0.50144 1.1938 1.1113 1.1886 2.1081-4e-3 0.7172-0.21297 1.261-1.3686 3.556-1.2884 2.5586-2.9671 6.6157-3.7484 9.0593-0.48027 1.5021-0.78572 2.9012-1.3003 5.9558-0.24049 1.4276-0.53789 3.0147-0.66088 3.5269s-0.35742 1.5475-0.52094 2.3006l-0.29733 1.3693 0.56196 1.6458c0.52516 1.5381 0.54819 1.6973 0.35166 2.4321-0.11566 0.43244-0.47422 1.133-0.79679 1.5569-1.0678 1.4031-1.6087 2.743-1.9353 4.7949-1.0865 6.8253-1.2722 8.7642-1.2686 13.248 3e-3 3.1836 0.0432 3.6979 0.38792 4.9107 0.2208 0.77675 0.7138 1.891 1.1556 2.6119 1.2193 1.9895 1.2202 2.9342 3e-3 3.6472-1.6756 0.98198-3.3759 0.14915-5.1729-2.5338-1.42-2.1201-1.8059-3.3959-2.1233-7.0198-0.18237-2.0823-0.20526-3.4089-0.0906-5.2493 0.22022-3.5347 0.28904-4.1753 0.78486-7.3054 0.24485-1.5458 0.39471-3.0117 0.333-3.2575-0.0617-0.24585-0.30412-0.57276-0.53871-0.72647-0.40347-0.26436-0.56585-0.25003-3.003 0.26495-9.6342 2.0358-10.216 2.1672-10.678 2.4131-0.57438 0.30556-0.96664 1.5581-1.1442 3.6533-0.0926 1.0929-0.27757 3.2444-0.41104 4.7812-0.25726 2.9619-0.4855 5.91-0.74727 9.652-0.088 1.2573-0.27689 2.6704-0.41985 3.1403-0.39181 1.2877-1.2255 2.4376-2.0336 2.8046-0.70664 0.32095-0.75142 0.32727-1.4159 0.20003zm-18.279-0.51834c-0.52953-0.40865-1.8388-2.7429-2.4346-4.3407-0.2746-0.73633-0.69667-2.3365-0.93794-3.556-0.42648-2.1556-0.43624-2.3514-0.35102-7.0432 0.04821-2.6543 0.17644-5.4737 0.28497-6.2653 0.592-4.3184 1.2285-7.5833 2.3769-12.192 0.8227-3.3017 1.0303-4.0687 2.0326-7.5082 0.29418-1.0096 0.4997-1.8707 0.45672-1.9137-0.04299-0.043-0.63938 0.34482-1.3253 0.86181-0.68594 0.51698-2.028 1.331-2.9823 1.8089-2.1279 1.0656-3.9545 1.4858-6.4997 1.4952-1.9654 7e-3 -3.1709-0.32132-4.9938-1.3612-0.477-0.27212-0.91515-0.49476-0.97367-0.49476-0.05851 0-0.10639 0.25607-0.10639 0.56905 0 1.1377-0.95992 9.2693-1.1822 10.014-0.08335 0.2794-0.39149 1.8034-0.68476 3.3867-0.29327 1.5833-1.3573 6.1934-2.3644 10.245-1.0072 4.0513-1.9974 8.128-2.2006 9.0593-0.83873 3.8446-1.9039 5.6141-3.7041 6.1535-1.4915 0.44687-2.526 0.0552-3.1482-1.1921-0.43108-0.86411-0.31012-1.6574 0.68275-4.4778 0.9482-2.6935 1.8435-5.9581 2.803-10.22 0.5721-2.5414 0.74282-3.4459 1.5981-8.4667 1.5824-9.2893 1.6106-9.5024 1.9468-14.732 0.08683-1.3504 0.20353-2.9905 0.25932-3.6446 0.11255-1.3195-0.13438-2.2151-1.3708-4.972-0.59849-1.3345-0.63716-1.5231-0.64232-3.1327-0.0093-2.8984 1.0669-5.5262 2.6364-6.4375 1.0438-0.60602 1.844-0.70722 2.7959-0.3536 1.4266 0.52996 2.4033 1.8096 2.7266 3.5725 0.08358 0.45569 0.20586 1.9519 0.27175 3.325 0.13482 2.8095 0.10998 2.7484 1.9214 4.7262 1.7695 1.932 3.6463 2.6876 5.8336 2.3485 0.67087-0.104 1.6131-0.37508 2.0939-0.60241 1.37-0.64778 4.2009-2.8362 6.2122-4.8024 2.165-2.1163 3.725-4.1452 7.2036-9.3682 1.4092-2.1159 2.863-4.1633 3.2307-4.5498l0.66854-0.70278 1.0876 0.06925c1.2031 0.07661 2.0731 0.535 2.551 1.3441 0.34153 0.57816 0.35734 2.3236 0.0282 3.1114-0.13305 0.31842-1.2228 2.0528-2.4216 3.8543-1.3862 2.083-2.4464 3.889-2.9125 4.9613-0.40305 0.92728-1.1715 2.6404-1.7077 3.8069-1.1254 2.4484-1.6564 4.0465-2.4451 7.3596-0.31069 1.305-0.98752 4.0492-1.5041 6.0981-1.0267 4.0723-1.856 8.1265-2.1458 10.489-0.10216 0.83306-0.25418 1.8618-0.3378 2.286-0.26166 1.3274-0.52174 6.3566-0.55217 10.677-0.03134 4.4502-0.03505 4.4214 1.0022 7.7662 0.37875 1.2214 0.41282 1.5042 0.24761 2.0556-0.10536 0.35167-0.37885 0.76211-0.60775 0.91209-0.55914 0.36636-1.9257 0.35086-2.4159-0.0274zm73.079-47.786c-4.0876-0.74667-7.6446-2.8245-8.8976-5.1976-0.81042-1.5349-0.98786-2.6241-0.74727-4.5868 0.47287-3.8576 2.5215-6.7376 4.3609-6.1306 1.3412 0.44265 1.5806 1.6774 0.73457 3.7901-0.63505 1.5859-0.91739 2.939-0.77343 3.7064 0.27646 1.4737 1.9703 2.8667 4.2443 3.4905 1.8002 0.49388 6.4913 0.77647 8.6422 0.52062 3.7096-0.44127 6.8281-1.9049 6.6539-3.1229-0.0617-0.43113-1.4944-1.2185-3.4159-1.8772-0.75641-0.25931-2.0634-0.78947-2.9044-1.1781-2.6353-1.2179-4.1417-3.0748-4.2834-5.2802-0.0993-1.5447 0.38321-2.4539 2.4564-4.6284 0.93235-0.9779 1.6625-1.8732 1.6225-1.9897-0.11762-0.3427-0.99226-0.24521-2.471 0.27541-2.6146 0.92052-3.666 0.8299-4.2329-0.36484-1.0125-2.1336 1.0705-4.4285 4.6577-5.1317 1.3642-0.2674 1.5766-0.26853 2.9633-0.01579 2.6829 0.48897 4.5959 1.8403 4.9 3.4612 0.17304 0.92243-0.1891 2.3565-0.84163 3.3328-0.31464 0.47074-1.3098 1.6513-2.2115 2.6236-1.2539 1.352-1.6276 1.8619-1.5889 2.1683 0.0431 0.34206 0.41713 0.55825 2.5578 1.4784 3.3534 1.4415 4.9076 2.3422 6.1435 3.5603 2.9287 2.8866 2.0589 6.574-2.0627 8.7436-1.351 0.71116-4.0272 1.7417-5.7415 2.2108-1.8477 0.50567-7.3366 0.58535-9.765 0.14176z" fill="#050505"/></g></g><metadata><rdf:RDF><cc:Work rdf:about=""><dc:title>MH3 LearnCon Logo</dc:title></cc:Work></rdf:RDF></metadata></svg>
